<svg width="25" height="25" viewBox="0 0 25 25" fill="none" xmlns="http://www.w3.org/2000/svg">
<g style="mix-blend-mode:multiply">
<path d="M14.1094 22.0195L7.94805 4.3108L10.9532 3.26523L17.1146 20.974L14.1094 22.0195ZM4.19971 17.2256L3.15414 14.2205L20.8629 8.05913L21.9085 11.0643L4.19971 17.2256Z" fill="#5057FF"/>
<path d="M14.1094 22.0195L7.94805 4.3108L10.9532 3.26523L17.1146 20.974L14.1094 22.0195ZM4.19971 17.2256L3.15414 14.2205L20.8629 8.05913L21.9085 11.0643L4.19971 17.2256Z" fill="#8850FF"/>
<path d="M14.1094 22.0195L7.94805 4.3108L10.9532 3.26523L17.1146 20.974L14.1094 22.0195ZM4.19971 17.2256L3.15414 14.2205L20.8629 8.05913L21.9085 11.0643L4.19971 17.2256Z" fill="#9361FF"/>
</g>
</svg>
